<?xml version="1.0" standalone="no"?>
<!DOCTYPE svg PUBLIC "-//W3C//DTD SVG 20010904//EN"
 "http://www.w3.org/TR/2001/REC-SVG-20010904/DTD/svg10.dtd">
<svg version="1.0" xmlns="http://www.w3.org/2000/svg"
 width="225.000000pt" height="225.000000pt" viewBox="0 0 225.000000 225.000000"
 preserveAspectRatio="xMidYMid meet">
<metadata>
Created by potrace 1.14, written by Peter Selinger 2001-2017
</metadata>
<g transform="translate(0.000000,225.000000) scale(0.100000,-0.100000)"
fill="#000000" stroke="none">
<path d="M812 2215 c-66 -34 -105 -95 -106 -166 l-1 -49 -46 0 c-51 0 -99 -29
-99 -59 0 -16 -13 -19 -122 -23 -139 -5 -182 -20 -235 -82 -59 -67 -58 -48
-58 -806 0 -692 0 -695 21 -735 47 -87 107 -126 204 -132 l65 -5 90 91 90 91
-137 0 c-126 0 -138 2 -148 19 -6 13 -10 245 -10 684 0 630 1 665 18 680 15
14 40 17 120 17 l102 0 0 -54 c0 -38 6 -61 19 -77 l19 -24 289 -3 c282 -3 290
-2 316 18 24 19 27 28 27 81 l0 59 101 0 c55 0 109 -5 120 -10 18 -10 19 -24
19 -273 l0 -262 90 90 90 90 0 163 c0 189 -9 236 -57 292 -58 68 -99 83 -239
88 l-122 4 -5 27 c-7 33 -42 51 -97 51 l-40 0 0 43 c0 96 -78 182 -175 193
-41 4 -59 1 -103 -21z m132 -124 c11 -12 16 -31 14 -53 -3 -33 -4 -33 -57 -36
-58 -3 -71 5 -71 46 0 53 78 82 114 43z"/>
<path d="M462 1377 c-31 -33 -30 -90 3 -122 l24 -25 403 0 c440 0 437 0 459
57 12 32 -5 89 -31 103 -12 6 -176 10 -428 10 l-409 0 -21 -23z"/>
<path d="M1752 1277 l-52 -52 148 -148 148 -148 57 60 c31 33 57 65 57 72 0 7
-57 70 -127 141 -151 152 -154 153 -231 75z m186 -120 l103 -103 -24 -22 -23
-22 -104 105 c-102 103 -104 104 -85 125 10 11 21 20 24 20 4 0 53 -46 109
-103z"/>
<path d="M1625 1150 l-29 -31 147 -147 147 -147 32 33 33 32 -145 145 c-80 80
-147 145 -150 145 -4 0 -19 -14 -35 -30z"/>
<path d="M485 1118 c-11 -6 -26 -18 -32 -26 -19 -24 -16 -86 6 -113 l19 -24
373 -3 373 -3 62 62 c67 66 70 80 23 104 -23 12 -95 15 -416 15 -261 -1 -395
-4 -408 -12z"/>
<path d="M1237 762 l-307 -307 148 -148 147 -147 308 308 307 307 -148 148
-147 147 -308 -308z m374 167 c9 -19 7 -26 -20 -53 -25 -25 -34 -29 -49 -20
-26 17 -26 43 -1 70 28 30 55 31 70 3z m-140 -140 c10 -20 -4 -37 -162 -195
-96 -96 -181 -174 -189 -174 -18 0 -40 19 -40 34 0 18 344 356 362 356 9 0 22
-10 29 -21z"/>
<path d="M465 825 c-28 -27 -34 -88 -11 -117 24 -32 65 -38 279 -38 l212 0 90
90 90 90 -318 0 -318 0 -24 -25z"/>
<path d="M842 227 c-29 -107 -52 -199 -52 -204 0 -8 385 89 396 100 2 1 -63
69 -145 151 l-147 147 -52 -194z m215 -78 c-34 -18 -119 -33 -134 -23 -34 21
-37 40 -18 109 l18 67 73 -73 c49 -48 70 -76 61 -80z"/>
</g>
</svg>
